<svg xmlns="http://www.w3.org/2000/svg" width="39" height="39" viewBox="0 0 39 39">
  <g id="Сгруппировать_15139" data-name="Сгруппировать 15139" transform="translate(-6551 716)">
    <path id="Контур_15512" data-name="Контур 15512" d="M1062.263,1320.8h.307c1.11.239,1.669.773,1.669,1.6v5.392h2.141l.589-.073c.926,0,1.528.6,1.816,1.8a2.012,2.012,0,0,1-1.583,1.92l-1.073-.074h-1.89v9.153q0,2.154,1.221,2.571l1.423.122h.718q1.307,0,1.65,1.743v.166c-.2,1.159-.8,1.742-1.8,1.742h-1.381q-3.487,0-5.172-3.773a7.193,7.193,0,0,1-.306-2.178v-9.546h-.755l-1.153.074a1.988,1.988,0,0,1-1.577-1.9c.2-1.16.6-1.742,1.184-1.742h2.3v-5.037C1060.736,1321.447,1061.294,1320.8,1062.263,1320.8Z" transform="translate(5506.89 -2029.796)"/>
    <g id="Прямоугольник_478" data-name="Прямоугольник 478" transform="translate(6551 -716)" fill="none" stroke="#2ee040" stroke-width="3">
      <rect width="39" height="39" rx="11" stroke="none"/>
      <rect x="1.5" y="1.5" width="36" height="36" rx="9.5" fill="none"/>
    </g>
  </g>
</svg>
